<?xml version="1.0" encoding="UTF-8"?>
<svg xmlns="http://www.w3.org/2000/svg" viewBox="0 0 200 240" fill="none">
  <!-- Saia Plissada Preta -->
  <g stroke="#1a1a1a" stroke-width="2.5" stroke-linecap="round" stroke-linejoin="round">
    <!-- Cintura -->
    <path d="M40 40 L100 30 L160 40 L160 50 L100 60 L40 50 Z" fill="#1a1a1a" stroke="#1a1a1a"/>
    <!-- Saia plissada -->
    <path d="M40 50 L30 220 L170 220 L160 50" fill="#0d0d0d" stroke="#1a1a1a"/>
    <!-- Pregas -->
    <line x1="52" y1="60" x2="45" y2="220" stroke="#2d2d2d" stroke-width="1.5"/>
    <line x1="64" y1="63" x2="60" y2="220" stroke="#2d2d2d" stroke-width="1.5"/>
    <line x1="76" y1="65" x2="75" y2="220" stroke="#2d2d2d" stroke-width="1.5"/>
    <line x1="88" y1="66" x2="90" y2="220" stroke="#2d2d2d" stroke-width="1.5"/>
    <line x1="100" y1="60" x2="100" y2="220" stroke="#2d2d2d" stroke-width="1.5"/>
    <line x1="112" y1="66" x2="110" y2="220" stroke="#2d2d2d" stroke-width="1.5"/>
    <line x1="124" y1="65" x2="125" y2="220" stroke="#2d2d2d" stroke-width="1.5"/>
    <line x1="136" y1="63" x2="140" y2="220" stroke="#2d2d2d" stroke-width="1.5"/>
    <line x1="148" y1="60" x2="155" y2="220" stroke="#2d2d2d" stroke-width="1.5"/>
    <!-- Fecho -->
    <line x1="100" y1="35" x2="100" y2="55" stroke="#555" stroke-width="1.5" stroke-dasharray="2,2"/>
  </g>
</svg>

